<svg width="102" height="89" viewBox="0 0 102 89" fill="none" xmlns="http://www.w3.org/2000/svg">
<path fill-rule="evenodd" clip-rule="evenodd" d="M30 64C42.1503 64 52 53.4787 52 40.5C52 27.5213 42.1503 17 30 17C17.8497 17 8 27.5213 8 40.5C8 51.0805 14.546 60.0278 23.5479 62.9732L25 47L18.5 37L28 46L26.601 63.7212C27.7088 63.9048 28.844 64 30 64Z" fill="#D0F2FF"/>
<path fill-rule="evenodd" clip-rule="evenodd" d="M70.5 62C86.7924 62 100 48.1208 100 31C100 13.8792 86.7924 0 70.5 0C54.2076 0 41 13.8792 41 31C41 45.212 50.1009 57.1902 62.5125 60.8502L63.5 49L56 37.5L67.5 48L66.0378 61.6477C67.493 61.8797 68.9831 62 70.5 62Z" fill="#00ADEF"/>
<path d="M32 49.5L30.5 31L28 40.5L18.5 37L28 46L26 69.5C10.4 76.3 2.5 84 0.5 87C25 67.5 60 73.5 60 73.5C60 73.5 40 74.5 22 89C53.2 73.8 88.3333 80.6667 102 86C91.2 76.4 78.8333 71 74 69.5L73 39L85 25.5L73 32.5L70.5 16.5L68.5 43L56 37.5L67.5 48L64 68C54 64.5 39 66.5 33.5 68L32 54L42 43L32 49.5Z" fill="#303030"/>
</svg>
